<svg width="21" height="22" viewBox="0 0 21 22" fill="none" xmlns="http://www.w3.org/2000/svg">
<path d="M18.532 12.073C18.5757 11.717 18.5984 11.3587 18.6 11C18.601 10.6408 18.5739 10.282 18.519 9.92701L20.8 8.11301C20.898 8.02852 20.9646 7.91348 20.9891 7.78646C21.0136 7.65943 20.9945 7.52786 20.935 7.41301L18.775 3.60001C18.7123 3.48682 18.6114 3.39967 18.4902 3.35422C18.3691 3.30877 18.2357 3.30798 18.114 3.35201L15.428 4.45201C14.8696 4.015 14.2547 3.65542 13.6 3.38301L13.2 0.468009C13.1821 0.33778 13.1174 0.218513 13.0181 0.132417C12.9187 0.04632 12.7915 -0.000736908 12.66 8.72711e-06H8.34003C8.2102 -0.00012104 8.08486 0.0474961 7.98786 0.133795C7.89087 0.220093 7.829 0.339047 7.81403 0.468009L7.41403 3.38301C6.76031 3.6586 6.1457 4.01903 5.58603 4.45501L2.90003 3.35501C2.77865 3.3077 2.64408 3.30685 2.5221 3.35261C2.40013 3.39837 2.29934 3.48753 2.23903 3.60301L0.0780278 7.41101C0.0114426 7.52412 -0.0115824 7.65764 0.0132726 7.78651C0.0381277 7.91539 0.109155 8.03077 0.213028 8.11101L2.49403 9.92801C2.37243 10.6375 2.3677 11.362 2.48003 12.073L0.200028 13.888C0.102064 13.9725 0.0354508 14.0875 0.010954 14.2146C-0.0135429 14.3416 0.00550808 14.4732 0.0650278 14.588L2.22403 18.4C2.28671 18.5132 2.38769 18.6003 2.50883 18.6458C2.62998 18.6913 2.76336 18.692 2.88503 18.648L5.57103 17.548C6.12736 17.986 6.74022 18.3469 7.39303 18.621L7.79303 21.536C7.81399 21.6658 7.88061 21.7839 7.98089 21.869C8.08117 21.954 8.20853 22.0005 8.34003 22H12.66C12.7905 22.0024 12.917 21.9556 13.0145 21.8688C13.112 21.7821 13.1732 21.6619 13.186 21.532L13.586 18.617C14.2377 18.3406 14.8503 17.9799 15.408 17.544L18.094 18.644C18.2154 18.6913 18.35 18.6922 18.472 18.6464C18.5939 18.6006 18.6947 18.5115 18.755 18.396L20.915 14.587C20.9816 14.4739 21.0046 14.3404 20.9798 14.2115C20.9549 14.0826 20.8839 13.9672 20.78 13.887L18.526 12.072L18.532 12.073Z" fill="white"/>
<path d="M10.5 15.125C9.41699 15.1118 8.38316 14.6706 7.62434 13.8977C6.86551 13.1248 6.44334 12.0831 6.45003 11C6.44334 9.9169 6.86551 8.87515 7.62434 8.10228C8.38316 7.3294 9.41699 6.88819 10.5 6.875C11.5831 6.88819 12.6169 7.3294 13.3757 8.10228C14.1345 8.87515 14.5567 9.9169 14.55 11C14.5567 12.0831 14.1345 13.1248 13.3757 13.8977C12.6169 14.6706 11.5831 15.1118 10.5 15.125Z" fill="#393F4B"/>
</svg>
