<svg xmlns="http://www.w3.org/2000/svg" width="9.633" height="17.492" viewBox="0 0 9.633 17.492">
  <path id="ic_invert_colors_off_24px" d="M12.862,9.867h0L9.153.05,6.665,1.808l-.793.822h0L5.1,3.536V3.465a5.278,5.278,0,0,0,.347,6.865,4.835,4.835,0,0,0,6.625.36h0l.787-.822h0ZM11.1,6.5c-2.053,2.333-.253,1.067-2.365,2.357C7.023,8.421,6.306,7.922,5.871,6.5c.466-1.774.31-2.3.793-2.96L9.153.05ZM9.153.05l3.709,9.817.589-1.015c.849-1.9-1.51-7.372-2.351-9.42L9.153-5.66,7.718-.568,5.1,3.465Z" transform="translate(-3.999 5.66)" fill="#fff"/>
</svg>
