<svg xmlns="http://www.w3.org/2000/svg" width="23.117" height="27" viewBox="0 0 23.117 27">
  <path id="ic_fingerprint_24px" d="M21.106,5.211a.542.542,0,0,1-.281-.078,13.564,13.564,0,0,0-13.618,0,.6.6,0,0,1-.831-.26.68.68,0,0,1,.244-.884,14.741,14.741,0,0,1,14.767-.013.657.657,0,0,1,.257.871.6.6,0,0,1-.538.364ZM3.612,12.036a.611.611,0,0,1-.355-.117.675.675,0,0,1-.147-.91A12.908,12.908,0,0,1,7.695,6.758a13.361,13.361,0,0,1,12.6-.013,12.95,12.95,0,0,1,4.584,4.225.677.677,0,0,1-.147.91.587.587,0,0,1-.856-.156A11.715,11.715,0,0,0,19.736,7.9a12.2,12.2,0,0,0-11.491.013,11.842,11.842,0,0,0-4.156,3.848.526.526,0,0,1-.477.273Zm7.64,15.691a.558.558,0,0,1-.428-.195A13.087,13.087,0,0,1,8.367,24.1a12.131,12.131,0,0,1-1.284-5.642,6.92,6.92,0,1,1,13.838,0,.612.612,0,1,1-1.222,0,5.7,5.7,0,1,0-11.393,0,10.706,10.706,0,0,0,1.137,5.005A12.248,12.248,0,0,0,11.7,26.609a.7.7,0,0,1,0,.923.65.65,0,0,1-.452.195Zm8.765-2.4a6.3,6.3,0,0,1-3.79-1.157,7.045,7.045,0,0,1-2.909-5.707.612.612,0,1,1,1.222,0,5.689,5.689,0,0,0,2.372,4.628,5.127,5.127,0,0,0,3.105.923,7.611,7.611,0,0,0,1.271-.13.614.614,0,0,1,.709.533.645.645,0,0,1-.5.754,7.865,7.865,0,0,1-1.479.156ZM17.56,28a.676.676,0,0,1-.159-.026,9.412,9.412,0,0,1-4.548-2.73A9.8,9.8,0,0,1,10.2,18.458a3.766,3.766,0,1,1,7.53,0,2.543,2.543,0,0,0,5.085,0,8.833,8.833,0,1,0-17.665,0,13.655,13.655,0,0,0,.819,4.693.647.647,0,0,1-.355.832.6.6,0,0,1-.782-.377,15.3,15.3,0,0,1-.892-5.148,10.3,10.3,0,0,1,.831-4.212,10.067,10.067,0,0,1,19.266,4.2,3.766,3.766,0,1,1-7.53,0,2.543,2.543,0,0,0-5.085,0,8.456,8.456,0,0,0,2.286,5.863,8.2,8.2,0,0,0,4,2.4.651.651,0,0,1,.428.793A.606.606,0,0,1,17.56,28Z" transform="translate(-2.443 -1.5)" fill="rgba(141,143,145,0.9)" stroke="rgba(141,143,145,0.9)" stroke-width="1"/>
</svg>
