<svg xmlns="http://www.w3.org/2000/svg" width="20.485" height="30.3" viewBox="0 0 20.485 30.3">
  <path id="ic_settings_remote_24px" d="M18.421,11.856h-7.9A1.321,1.321,0,0,0,9.2,13.174V28.982A1.321,1.321,0,0,0,10.517,30.3h7.9a1.321,1.321,0,0,0,1.317-1.317V13.174A1.321,1.321,0,0,0,18.421,11.856Zm-3.952,7.9A2.635,2.635,0,1,1,17.1,17.126,2.642,2.642,0,0,1,14.469,19.761ZM7.948,7.97,9.806,9.828a6.615,6.615,0,0,1,9.327,0L20.99,7.97a9.223,9.223,0,0,0-13.042,0ZM14.469,0A14.446,14.446,0,0,0,4.22,4.242L6.077,6.1a11.863,11.863,0,0,1,16.77.013l1.858-1.857A14.349,14.349,0,0,0,14.469,0Z" transform="translate(-4.22)" fill="#fff"/>
</svg>
