<svg id="icon_action_cached_24px" data-name="icon/action/cached_24px" xmlns="http://www.w3.org/2000/svg" width="34" height="33" viewBox="0 0 34 33">
  <rect id="Boundary" width="33" height="33" fill="none"/>
  <path id="_Color" data-name=" ↳Color" d="M16,25a10.977,10.977,0,0,1-6.2-1.938l2.123-2.281A8.1,8.1,0,0,0,16,21.875c4.813,0,8.728-4.206,8.728-9.375H20.365l5.818-6.251L32,12.5H27.637C27.637,19.392,22.416,25,16,25ZM5.818,18.749h0L0,12.5H4.363C4.363,5.608,9.584,0,16,0a10.979,10.979,0,0,1,6.2,1.938L20.073,4.219A8.1,8.1,0,0,0,16,3.125c-4.812,0-8.727,4.206-8.727,9.375h4.363L5.819,18.748Z" transform="translate(1 4)" fill="#fff"/>
</svg>
