<svg xmlns="http://www.w3.org/2000/svg" width="26.714" height="29.683" viewBox="0 0 26.714 29.683">
  <path id="ic_event_available_24px" d="M23.08,15.93l-1.573-1.573L14.265,21.6l-3.146-3.146L9.545,20.027l4.72,4.72L23.08,15.93ZM26.746,3.968H25.262V1H22.294V3.968H10.421V1H7.452V3.968H5.968A2.955,2.955,0,0,0,3.015,6.937L3,27.714a2.967,2.967,0,0,0,2.968,2.968H26.746a2.977,2.977,0,0,0,2.968-2.968V6.937A2.977,2.977,0,0,0,26.746,3.968Zm0,23.746H5.968V11.389H26.746Z" transform="translate(-3 -1)" fill="#fff"/>
</svg>
